   0
SECTION
   2
ENTITIES
   0
LINE
8
0
  10
   0.000
  20
   0.000
  11
   0.601
  21
   1.225
   0
LINE
8
0
  10
   0.601
  20
   1.225
  11
   0.935
  21
   1.548
   0
LINE
8
0
  10
   0.935
  20
   1.548
  11
   1.624
  21
   1.928
   0
LINE
8
0
  10
   1.624
  20
   1.928
  11
   3.352
  21
   2.711
   0
LINE
8
0
  10
   3.352
  20
   2.711
  11
   6.831
  21
   3.849
   0
LINE
8
0
  10
   6.831
  20
   3.849
  11
  10.320
  21
   4.714
   0
LINE
8
0
  10
  10.320
  20
   4.714
  11
  13.815
  21
   5.420
   0
LINE
8
0
  10
  13.815
  20
   5.420
  11
  20.816
  21
   6.522
   0
LINE
8
0
  10
  20.816
  20
   6.522
  11
  27.823
  21
   7.326
   0
LINE
8
0
  10
  27.823
  20
   7.326
  11
  34.834
  21
   7.895
   0
LINE
8
0
  10
  34.834
  20
   7.895
  11
  41.846
  21
   8.262
   0
LINE
8
0
  10
  41.846
  20
   8.262
  11
  48.861
  21
   8.430
   0
LINE
8
0
  10
  48.861
  20
   8.430
  11
  55.875
  21
   8.401
   0
LINE
8
0
  10
  55.875
  20
   8.401
  11
  62.889
  21
   8.194
   0
LINE
8
0
  10
  62.889
  20
   8.194
  11
  69.900
  21
   7.827
   0
LINE
8
0
  10
  69.900
  20
   7.827
  11
  76.908
  21
   7.319
   0
LINE
8
0
  10
  76.908
  20
   7.319
  11
  83.913
  21
   6.691
   0
LINE
8
0
  10
  83.913
  20
   6.691
  11
  90.915
  21
   5.961
   0
LINE
8
0
  10
  90.915
  20
   5.961
  11
  97.910
  21
   5.150
   0
LINE
8
0
  10
  97.910
  20
   5.150
  11
 104.903
  21
   4.279
   0
LINE
8
0
  10
 104.903
  20
   4.279
  11
 111.890
  21
   3.375
   0
LINE
8
0
  10
 111.890
  20
   3.375
  11
 118.872
  21
   2.462
   0
LINE
8
0
  10
 118.872
  20
   2.462
  11
 125.849
  21
   1.694
   0
LINE
8
0
  10
 125.849
  20
   1.694
  11
 132.824
  21
   0.741
   0
LINE
8
0
  10
 132.824
  20
   0.741
  11
 139.800
  21
   0.000
   0
LINE
8
0
  10
 139.800
  20
   0.000
  11
   0.000
  21
   0.000
   0
LINE
8
0
  10
   0.000
  20
   0.000
  11
   0.797
  21
  -1.085
   0
LINE
8
0
  10
   0.797
  20
  -1.085
  11
   1.162
  21
  -1.352
   0
LINE
8
0
  10
   1.162
  20
  -1.352
  11
   1.871
  21
  -1.629
   0
LINE
8
0
  10
   1.871
  20
  -1.629
  11
   3.638
  21
  -2.191
   0
LINE
8
0
  10
   3.638
  20
  -2.191
  11
   7.149
  21
  -2.965
   0
LINE
8
0
  10
   7.149
  20
  -2.965
  11
  10.650
  21
  -3.529
   0
LINE
8
0
  10
  10.650
  20
  -3.529
  11
  14.145
  21
  -3.975
   0
LINE
8
0
  10
  14.145
  20
  -3.975
  11
  21.124
  21
  -4.640
   0
LINE
8
0
  10
  21.124
  20
  -4.640
  11
  28.097
  21
  -5.100
   0
LINE
8
0
  10
  28.097
  20
  -5.100
  11
  35.066
  21
  -5.392
   0
LINE
8
0
  10
  35.066
  20
  -5.392
  11
  42.034
  21
  -5.544
   0
LINE
8
0
  10
  42.034
  20
  -5.544
  11
  48.999
  21
  -5.550
   0
LINE
8
0
  10
  48.999
  20
  -5.550
  11
  55.965
  21
  -5.406
   0
LINE
8
0
  10
  55.965
  20
  -5.406
  11
  62.931
  21
  -5.132
   0
LINE
8
0
  10
  62.931
  20
  -5.132
  11
  69.900
  21
  -4.743
   0
LINE
8
0
  10
  69.900
  20
  -4.743
  11
  76.872
  21
  -4.257
   0
LINE
8
0
  10
  76.872
  20
  -4.257
  11
  82.448
  21
  -3.696
   0
LINE
8
0
  10
  82.448
  20
  -3.696
  11
  90.825
  21
  -3.081
   0
LINE
8
0
  10
  90.825
  20
  -3.081
  11
  97.810
  21
  -2.433
   0
LINE
8
0
  10
  97.810
  20
  -2.433
  11
 104.797
  21
  -1.777
   0
LINE
8
0
  10
 104.797
  20
  -1.777
  11
 111.790
  21
  -1.149
   0
LINE
8
0
  10
 111.790
  20
  -1.149
  11
 118.788
  21
  -0.580
   0
LINE
8
0
  10
 118.788
  20
  -0.580
  11
 125.791
  21
  -0.122
   0
LINE
8
0
  10
 125.791
  20
  -0.122
  11
 132.796
  21
   0.168
   0
LINE
8
0
  10
 132.796
  20
   0.168
  11
 139.800
  21
   0.000
   0
ENDSEC
   0
EOF
